<svg width="575" height="373" viewBox="0 0 575 373" fill="none" xmlns="http://www.w3.org/2000/svg">
<g clip-path="url(#clip0_450_3306)">
<path d="M93.0273 -445.954C124.737 -469.534 163.812 -478.629 204.991 -473.7L206.985 -473.451L206.995 -473.45C250.346 -467.778 297.429 -446.252 347.46 -411.909C397.724 -377.407 452.49 -328.905 511.398 -267.165C565.649 -210.334 603.204 -165.062 627.854 -134.071L632.614 -128.064L632.925 -127.671L633.22 -127.265C632.798 -127.846 633.603 -126.827 636.391 -123.376C638.691 -120.527 641.736 -116.763 644.783 -112.996C650.84 -105.508 656.991 -97.9093 657.178 -97.6768L662.567 -90.9736C668.95 -99.5069 731.309 -181.905 812.593 -267.076C871.501 -328.838 926.268 -377.351 976.532 -411.859C1026.56 -446.208 1073.65 -467.734 1117 -473.406L1117.01 -473.408C1159.64 -478.963 1200 -469.577 1232.52 -444.771L1232.53 -444.763C1270.77 -415.56 1293.28 -377.032 1297.36 -330.99L1297.51 -329.146C1303.55 -250.97 1253.99 -161.935 1163.96 -66.1865L1163.97 -66.1855C1145.2 -46.2275 1103.55 -5.9699 1073.02 23.2432C1085.26 48.0995 1101.56 83.7232 1115.06 121.833L1115.86 124.112L1115.87 124.118C1135.77 180.997 1144.82 230.96 1140.64 272.611C1136.35 315.296 1117.98 349.764 1083.93 371.816C1054.18 391.084 1021.81 399.94 988.018 397.337C954.529 394.757 921.454 381.081 889.53 358.341L887.315 356.749C840.83 323.014 796.238 270.792 751.862 219.046L751.845 219.024L751.826 219.003L750.977 218.008V218.007C738.538 203.513 711.765 171.4 695.092 151.348L695.071 151.322L695.05 151.297C694.286 150.373 687.364 141.466 681.165 133.499C674.262 124.627 668.429 117.147 668.489 117.217L662.799 110.548C629.011 151.532 597.846 189.065 572.978 218.054L572.16 219.011L572.146 219.027L572.132 219.044C527.797 270.752 483.209 322.969 436.684 356.744L434.466 358.339C399.313 383.378 363.024 397.552 326.337 397.989L324.59 398C294.85 398 266.474 388.901 240.075 371.826L240.071 371.823C205.991 349.771 187.619 315.297 183.34 272.607C179.164 230.955 188.221 180.993 208.127 124.118L208.13 124.109L208.134 124.1C221.498 86.012 237.557 50.4574 250.967 23.2422C220.438 -5.97086 178.79 -46.2277 160.026 -66.1855V-66.1865C69.2796 -162.7 19.7205 -252.372 26.6357 -330.974L26.6367 -330.985C30.7109 -377.034 53.2226 -415.559 91.499 -444.802L93.0273 -445.954Z" fill="white" stroke="white" stroke-width="50"/>
<path d="M106.678 -424.937C133.307 -445.284 166.918 -453.467 203.751 -448.661C279.521 -438.747 376.953 -371.86 493.316 -249.903C550.512 -189.985 588.867 -143.141 612.99 -112.576C613.305 -112.142 637.382 -82.4009 637.695 -82.0112L637.345 -81.5802L662.724 -50.4594L682.226 -75.517C684.822 -79.0238 747.836 -163.013 830.678 -249.816C947.04 -371.816 1044.47 -438.704 1120.24 -448.618C1157.12 -453.423 1190.69 -445.241 1217.36 -424.893C1250.52 -399.567 1269.05 -367.227 1272.45 -328.783C1278.41 -261.635 1235.75 -179.031 1145.75 -83.3099C1124.63 -60.8407 1072.89 -11.1406 1042.37 17.9524C1054.5 41.4605 1075.76 85.2302 1092.27 132.376C1130.94 242.861 1123.55 316.373 1070.34 350.834C1019.27 383.91 962.436 379.581 904.031 337.976C859.768 306.459 816.58 256.109 770.84 202.772L769.99 201.775C757.727 187.489 731.053 155.495 714.315 135.364C713.415 134.275 688.357 101.985 687.507 100.989L687.551 100.934L663.115 70.8417C621.818 121.033 583.426 167.478 554.003 201.775L553.153 202.772C507.458 256.066 464.269 306.416 419.962 337.976C387.201 361.311 355.291 373 324.589 373C300.198 373 276.478 365.597 253.653 350.834C200.395 316.373 193.055 242.861 231.723 132.376C247.521 87.3515 267.303 45.7466 281.625 17.9524C251.102 -11.1406 199.365 -60.8408 178.241 -83.3099C88.2388 -179.031 45.6322 -261.635 51.5398 -328.783C54.9411 -367.227 73.4696 -399.567 106.678 -424.937ZM192.92 -375.626C177.57 -377.617 165.934 -375.106 156.222 -367.703C139.842 -355.148 131.472 -340.861 129.861 -322.721C127.041 -290.814 143.377 -231.892 237.138 -132.058C264.394 -103.052 353.411 -18.6742 357.171 -15.0803L365.451 -7.20078C372.656 -0.360443 374.312 10.2466 369.434 18.8187L364.018 28.3434C363.648 28.9716 329.374 89.4858 306.106 156.232C276.926 239.96 283.594 280.742 298.229 290.223C344.147 319.966 394.899 269.832 492.018 156.621L492.868 155.625C524.675 118.545 567.873 66.0838 613.881 10.2104L584.283 -26.2399L584.366 -26.33C577.182 -35.0685 563.157 -52.0832 562.685 -52.7021C478.278 -163.186 301.317 -361.469 192.92 -375.626ZM1167.77 -367.746C1158.06 -375.149 1146.38 -377.704 1131.07 -375.669C1013.81 -360.3 813.537 -123.097 746.27 -32.9603L745.823 -32.3972L712.433 10.4957L738.956 43.0169L738.905 43.0739C745.189 51.1479 762.614 73.6721 763.322 74.537C783.775 99.0843 818.952 141.295 831.125 155.495L831.976 156.491C929.094 269.702 979.89 319.836 1025.72 290.094C1040.35 280.656 1047.07 239.874 1017.84 156.102C994.573 89.3934 960.294 28.8314 959.93 28.2134L954.514 18.6454C949.681 10.0734 951.292 -0.533722 958.497 -7.37402L966.733 -15.1669C970.586 -18.8511 1059.6 -103.226 1086.85 -132.232C1180.62 -231.979 1196.95 -290.944 1194.13 -322.808C1192.57 -340.948 1184.15 -355.235 1167.77 -367.746Z" fill="#7A2BDE" fill-opacity="0.5"/>
</g>
<defs>
<clipPath id="clip0_450_3306">
<rect width="575" height="373" fill="white"/>
</clipPath>
</defs>
</svg>
