<svg width="575" height="500" viewBox="0 0 575 500" fill="none" xmlns="http://www.w3.org/2000/svg">
<g clip-path="url(#clip0_450_3298)">
<path d="M93.0273 54.0459C124.737 30.4657 163.812 21.3709 204.991 26.2998L206.985 26.5488L206.995 26.5498C250.346 32.2222 297.429 53.7481 347.46 88.0908C397.724 122.593 452.49 171.095 511.398 232.835C565.649 289.666 603.204 334.938 627.854 365.929L632.614 371.936L632.925 372.329L633.22 372.735C632.798 372.154 633.603 373.173 636.391 376.624C638.691 379.473 641.736 383.237 644.783 387.004C650.84 394.492 656.991 402.091 657.178 402.323L662.567 409.026C668.95 400.493 731.309 318.095 812.593 232.924C871.501 171.162 926.268 122.649 976.532 88.1406C1026.56 53.7918 1073.65 32.2661 1117 26.5938L1117.01 26.5918C1159.64 21.0374 1200 30.4228 1232.52 55.2295L1232.53 55.2373C1270.77 84.4403 1293.28 122.968 1297.36 169.01L1297.51 170.854C1303.55 249.03 1253.99 338.065 1163.96 433.813L1163.97 433.814C1145.2 453.773 1103.55 494.03 1073.02 523.243C1085.26 548.099 1101.56 583.723 1115.06 621.833L1115.86 624.112L1115.87 624.118C1135.77 680.997 1144.82 730.96 1140.64 772.611C1136.35 815.296 1117.98 849.764 1083.93 871.816C1054.18 891.084 1021.81 899.94 988.018 897.337C954.529 894.757 921.454 881.081 889.53 858.341L887.315 856.749C840.83 823.014 796.238 770.792 751.862 719.046L751.845 719.024L751.826 719.003L750.977 718.008V718.007C738.538 703.513 711.765 671.4 695.092 651.348L695.071 651.322L695.05 651.297C694.286 650.373 687.364 641.466 681.165 633.499C674.262 624.627 668.429 617.147 668.489 617.217L662.799 610.548C629.011 651.532 597.846 689.065 572.978 718.054L572.16 719.011L572.146 719.027L572.132 719.044C527.797 770.752 483.209 822.969 436.684 856.744L434.466 858.339C399.313 883.378 363.024 897.552 326.337 897.989L324.59 898C294.85 898 266.474 888.901 240.075 871.826L240.071 871.823C205.991 849.771 187.619 815.297 183.34 772.607C179.164 730.955 188.221 680.993 208.127 624.118L208.13 624.109L208.134 624.1C221.498 586.012 237.557 550.457 250.967 523.242C220.438 494.029 178.79 453.772 160.026 433.814V433.813C69.2796 337.3 19.7205 247.628 26.6357 169.026L26.6367 169.015C30.7109 122.966 53.2226 84.4407 91.499 55.1982L93.0273 54.0459Z" fill="white" stroke="white" stroke-width="50"/>
<path d="M106.678 75.0633C133.307 54.7155 166.918 46.5333 203.751 51.3388C279.521 61.2531 376.953 128.14 493.316 250.097C550.512 310.015 588.867 356.859 612.99 387.424C613.305 387.858 637.382 417.599 637.695 417.989L637.345 418.42L662.724 449.541L682.226 424.483C684.822 420.976 747.836 336.987 830.678 250.184C947.04 128.184 1044.47 61.2963 1120.24 51.3821C1157.12 46.5766 1190.69 54.7589 1217.36 75.1066C1250.52 100.433 1269.05 132.773 1272.45 171.217C1278.41 238.365 1235.75 320.969 1145.75 416.69C1124.63 439.159 1072.89 488.859 1042.37 517.952C1054.5 541.461 1075.76 585.23 1092.27 632.376C1130.94 742.861 1123.55 816.373 1070.34 850.834C1019.27 883.91 962.436 879.581 904.031 837.976C859.768 806.459 816.58 756.109 770.84 702.772L769.99 701.775C757.727 687.489 731.053 655.495 714.315 635.364C713.415 634.275 688.357 601.985 687.507 600.989L687.551 600.934L663.115 570.842C621.818 621.033 583.426 667.478 554.003 701.775L553.153 702.772C507.458 756.066 464.269 806.416 419.962 837.976C387.201 861.311 355.291 873 324.589 873C300.198 873 276.478 865.597 253.653 850.834C200.395 816.373 193.055 742.861 231.723 632.376C247.521 587.352 267.303 545.747 281.625 517.952C251.102 488.859 199.365 439.159 178.241 416.69C88.2388 320.969 45.6322 238.365 51.5398 171.217C54.9411 132.773 73.4696 100.433 106.678 75.0633ZM192.92 124.374C177.57 122.383 165.934 124.894 156.222 132.297C139.842 144.852 131.472 159.139 129.861 177.279C127.041 209.186 143.377 268.108 237.138 367.942C264.394 396.948 353.411 481.326 357.171 484.92L365.451 492.799C372.656 499.64 374.312 510.247 369.434 518.819L364.018 528.343C363.648 528.972 329.374 589.486 306.106 656.232C276.926 739.96 283.594 780.742 298.229 790.223C344.147 819.966 394.899 769.832 492.018 656.621L492.868 655.625C524.675 618.545 567.873 566.084 613.881 510.21L584.283 473.76L584.366 473.67C577.182 464.932 563.157 447.917 562.685 447.298C478.278 336.814 301.317 138.531 192.92 124.374ZM1167.77 132.254C1158.06 124.851 1146.38 122.296 1131.07 124.331C1013.81 139.7 813.537 376.903 746.27 467.04L745.823 467.603L712.433 510.496L738.956 543.017L738.905 543.074C745.189 551.148 762.614 573.672 763.322 574.537C783.775 599.084 818.952 641.295 831.125 655.495L831.976 656.491C929.094 769.702 979.89 819.836 1025.72 790.094C1040.35 780.656 1047.07 739.874 1017.84 656.102C994.573 589.393 960.294 528.831 959.93 528.213L954.514 518.645C949.681 510.073 951.292 499.466 958.497 492.626L966.733 484.833C970.586 481.149 1059.6 396.774 1086.85 367.768C1180.62 268.021 1196.95 209.056 1194.13 177.192C1192.57 159.052 1184.15 144.765 1167.77 132.254Z" fill="#7A2BDE" fill-opacity="0.5"/>
</g>
<defs>
<clipPath id="clip0_450_3298">
<rect width="575" height="500" fill="white"/>
</clipPath>
</defs>
</svg>
