<svg width="161" height="56" viewBox="0 0 161 56" fill="none" xmlns="http://www.w3.org/2000/svg">
<path d="M47.0676 14.2664H54.3431L60.1697 25.6519L65.9716 14.2664H73.2471L63.3937 32.3869V42.0514H56.9211V32.3869L47.0676 14.2664Z" fill="white"/>
<path d="M77.3632 42.4112C76.0742 42.4112 74.9299 42.1906 73.9362 41.7526C72.9395 41.3146 72.155 40.6498 71.5797 39.7613C71.0045 38.8697 70.7184 37.7545 70.7184 36.4062C70.7184 35.2723 70.9153 34.3155 71.3121 33.5358C71.7059 32.756 72.2504 32.1223 72.9426 31.6377C73.6348 31.1499 74.4345 30.7803 75.3359 30.5286C76.2403 30.277 77.2033 30.1061 78.2308 30.016C79.3782 29.9104 80.3042 29.7955 81.0056 29.6774C81.707 29.5563 82.2177 29.3854 82.5376 29.1586C82.8575 28.9319 83.0175 28.6119 83.0175 28.1956V28.1304C83.0175 27.45 82.7837 26.9219 82.3223 26.5491C81.8577 26.1763 81.2301 25.99 80.4395 25.99C79.5874 25.99 78.9045 26.1763 78.3877 26.5491C77.8708 26.9219 77.5417 27.4345 77.4002 28.09L71.4659 27.8756C71.6413 26.6361 72.0935 25.5271 72.8256 24.5485C73.5578 23.57 74.5669 22.7995 75.8528 22.2372C77.1387 21.675 78.6829 21.3923 80.4918 21.3923C81.7808 21.3923 82.9683 21.5445 84.0573 21.852C85.1432 22.1565 86.0907 22.6007 86.8998 23.1816C87.7058 23.7626 88.3303 24.4709 88.7733 25.3127C89.2163 26.1546 89.4377 27.1145 89.4377 28.1956V42.0663H83.3867V39.2239H83.2298C82.8698 39.9135 82.4115 40.5006 81.8547 40.9791C81.2978 41.4575 80.6426 41.8147 79.895 42.0539C79.1444 42.29 78.3015 42.4112 77.3632 42.4112ZM79.3474 38.1583C80.0396 38.1583 80.6641 38.0154 81.224 37.7327C81.7839 37.45 82.2269 37.0586 82.5592 36.5553C82.8914 36.0552 83.0606 35.4742 83.0606 34.8094V32.871C82.876 32.9673 82.6545 33.0574 82.3961 33.1381C82.1377 33.2189 81.8547 33.2935 81.547 33.3649C81.2394 33.4364 80.9225 33.4985 80.5995 33.5513C80.2765 33.6041 79.9627 33.6538 79.6643 33.6973C79.0583 33.7936 78.5445 33.9458 78.1169 34.1478C77.6924 34.3528 77.3663 34.6137 77.1448 34.9368C76.9202 35.2599 76.8095 35.642 76.8095 36.0862C76.8095 36.7573 77.0494 37.2729 77.5263 37.6271C78.0031 37.9812 78.6122 38.1583 79.3474 38.1583Z" fill="white"/>
<path d="M94.4399 21.3958H100.559V25.4095C100.98 24.17 101.912 23.1914 102.912 22.4738C103.912 21.7562 105.105 21.3989 106.49 21.3989C107.893 21.3989 109.096 21.7624 110.095 22.4893C111.095 23.2163 111.732 24.1886 112.003 25.4126C112.381 24.1979 113.325 23.2256 114.424 22.4956C115.519 21.7655 116.814 21.3989 118.306 21.3989C120.216 21.3989 121.77 22.0171 122.963 23.2535C124.157 24.49 124.754 26.183 124.754 28.3359V42.073H118.321V29.8239C118.321 28.805 118.063 28.0283 117.546 27.4909C117.029 26.9566 116.359 26.6863 115.534 26.6863C114.648 26.6863 113.953 26.9783 113.448 27.5561C112.944 28.137 112.692 28.9137 112.692 29.8891V42.0699H106.508V29.7556C106.508 28.8081 106.253 28.0594 105.745 27.5095C105.238 26.9597 104.564 26.6863 103.733 26.6863C103.17 26.6863 102.675 26.8199 102.248 27.0901C101.817 27.3604 101.482 27.7425 101.242 28.2396C100.999 28.7366 100.879 29.3206 100.879 29.9948V42.0699H94.4399V21.3958Z" fill="white"/>
<path d="M129.503 49.7183V21.3958H135.871V25.1548C136.135 24.5334 136.708 23.937 137.194 23.3623C137.68 22.7876 138.304 22.3154 139.061 21.9488C139.818 21.5822 140.728 21.3958 141.79 21.3958C143.192 21.3958 144.506 21.7686 145.73 22.5111C146.955 23.2535 147.942 24.403 148.696 25.9531C149.45 27.5033 149.828 29.4791 149.828 31.8773C149.828 34.1886 149.468 36.124 148.742 37.6835C148.019 39.243 147.044 40.411 145.823 41.1908C144.598 41.9705 143.242 42.3588 141.75 42.3588C140.731 42.3588 139.852 42.1911 139.107 41.8556C138.363 41.5201 137.735 41.0758 137.234 40.526C136.732 39.9761 136.342 39.389 136.071 38.7583H135.939V49.7183H129.503ZM135.806 31.8618C135.806 32.9584 135.954 33.9152 136.246 34.7291C136.541 35.5431 136.966 36.1768 137.523 36.6241C138.08 37.0715 138.75 37.2952 139.529 37.2952C140.319 37.2952 140.99 37.0715 141.541 36.6241C142.091 36.1768 142.513 35.5462 142.796 34.7291C143.082 33.9152 143.223 32.9584 143.223 31.8618C143.223 30.7621 143.082 29.8115 142.796 29.0069C142.51 28.2023 142.094 27.5779 141.547 27.1336C140.999 26.6894 140.325 26.4688 139.526 26.4688C138.738 26.4688 138.064 26.6863 137.514 27.1181C136.96 27.553 136.538 28.1712 136.243 28.9789C135.954 29.7866 135.806 30.7465 135.806 31.8618Z" fill="white"/>
<path d="M157.711 17.6472C156.798 17.6472 156.019 17.3428 155.37 16.737C154.721 16.1312 154.398 15.3981 154.398 14.5376C154.398 13.6864 154.721 12.9594 155.37 12.3506C156.019 11.7448 156.795 11.4403 157.699 11.4403C158.613 11.4403 159.391 11.7448 160.034 12.3506C160.677 12.9563 161 13.6864 161 14.5376C161 15.3981 160.677 16.1281 160.034 16.737C159.391 17.3459 158.616 17.6472 157.711 17.6472Z" fill="white"/>
<path d="M160.917 21.4642H154.484V42.0668H160.917V21.4642Z" fill="white"/>
<path d="M39.218 30.5046C39.218 25.3819 35.1088 21.2323 30.036 21.2323L24.9631 21.2175V16.2727C24.9631 11.15 20.854 7.0004 15.7811 7.0004C12.4057 7.0004 9.45593 8.84298 7.86118 11.5846C6.4719 12.3997 5.31254 13.5754 4.51028 14.9833C1.80997 16.5987 0 19.5676 0 22.9663V36.0719C0 41.1946 5.10222 46.4705 10.1702 46.4705H23.4369C26.8661 46.4705 29.855 44.5686 31.4302 41.7578C32.7363 40.9624 33.8272 39.8608 34.6099 38.5468C37.3591 36.9463 39.218 33.9428 39.218 30.5046Z" fill="#582DB4"/>
<path d="M23.4465 27.926L18.3737 27.9112V22.9663C18.3737 17.8436 14.2645 13.6941 9.19168 13.6941C4.11882 13.6941 0.00964355 17.8436 0.00964355 22.9663V36.072C0.00964355 41.1947 5.11182 46.4705 10.1798 46.4705H23.4465C28.5194 46.4705 32.6285 42.321 32.6285 37.1983C32.6285 32.0756 28.5194 27.926 23.4465 27.926Z" fill="white"/>
<path opacity="0.5" d="M26.7342 24.5665L21.6662 24.5516C21.6613 24.5516 21.6564 24.5467 21.6564 24.5418V19.7155C21.6564 14.4198 17.3173 10.1122 12.0732 10.3395C7.18626 10.5519 3.29236 14.6175 3.29236 19.6018V33.3892C3.29236 38.5119 7.77821 43.106 12.8511 43.106H26.6168C31.8608 43.106 36.1265 38.7243 35.9015 33.4287C35.7009 28.4987 31.6701 24.5665 26.7342 24.5665Z" fill="#F43EAB"/>
<path opacity="0.5" d="M30.0456 21.2319L24.9727 21.217V16.2722C24.9727 11.1495 20.8636 6.99992 15.7908 6.99992C10.7179 6.99992 6.60876 11.1495 6.60876 16.2722V30.5041C6.60876 36.4567 10.3461 39.7764 15.419 39.7764H30.0456C35.1185 39.7764 39.2276 35.6268 39.2276 30.5041C39.2276 25.3814 35.1185 21.2319 30.0456 21.2319Z" fill="#FF0088"/>
</svg>
