<svg width="216" height="56" viewBox="0 0 216 56" fill="none" xmlns="http://www.w3.org/2000/svg">
<g clip-path="url(#clip0_450_3504)">
<path d="M79.0914 25.7372C79.0914 11.5398 61.3849 0.0240288 39.5557 0.0240288C17.7265 0.0240288 0.0200195 11.5923 0.0200195 25.7372V27.2622C0.0200195 42.301 15.5066 54.5003 39.5557 54.5003C63.7634 54.5003 79.0914 42.301 79.0914 27.2622V25.7372Z" fill="#28316B"/>
<path d="M77.6075 25.7353C77.6075 39.0915 60.5881 49.9236 39.6046 49.9236C18.5682 49.9236 1.54883 39.0915 1.54883 25.7353C1.54883 12.3792 18.5682 1.54701 39.5517 1.54701C60.5881 1.49443 77.6075 12.3792 77.6075 25.7353Z" fill="#50B4E9"/>
<path d="M26.9569 18.0762C26.9569 18.1288 26.534 18.4969 26.7983 18.8124C27.3797 19.6012 29.2297 20.0218 31.1324 19.6012C32.2424 19.3382 33.6695 18.234 35.0437 17.1297C36.5237 15.9203 38.0565 14.7635 39.5364 14.2902C41.1221 13.7644 42.1263 14.0273 42.8134 14.1851C43.5534 14.3954 44.3991 14.8687 45.7733 15.9203C48.3632 17.8659 58.8286 26.9628 60.6256 28.5403C62.1056 27.9093 68.5539 25.1224 77.3279 23.1768C76.5879 18.4969 73.7337 14.2377 69.3996 10.7672C63.427 13.2912 56.0272 14.6057 48.8389 11.0827C48.7861 11.0827 44.9276 9.24226 41.0692 9.34742C35.3609 9.45259 32.8767 11.924 30.2339 14.5532L26.9569 18.0762Z" fill="white"/>
<path d="M60.2185 29.5093C60.1128 29.4041 47.9561 18.8349 45.1547 16.7315C43.5691 15.5221 42.6705 15.2592 41.7192 15.1014C41.2435 15.0489 40.5563 15.154 40.0806 15.2592C38.8121 15.6273 37.1208 16.7315 35.6408 17.8884C34.108 19.0978 32.6281 20.2546 31.3067 20.5701C29.5625 20.9382 27.5011 20.5175 26.4969 19.8339C26.1269 19.571 25.8097 19.2555 25.704 18.9926C25.334 18.1513 26.0212 17.5203 26.1269 17.4151L29.5096 13.7869L30.6724 12.63C29.6153 12.7878 28.6111 13.0507 27.6068 13.3136C26.3911 13.6817 25.2283 13.9972 24.0127 13.9972C23.537 13.9972 20.8942 13.5765 20.3657 13.4188C17.3529 12.63 14.7101 11.7887 10.6932 9.94828C5.93618 13.4714 2.71201 17.8884 1.81348 22.7786C2.50059 22.9363 3.61055 23.3044 4.08625 23.4096C14.9216 25.8284 18.2514 28.2473 18.8857 28.7731C19.5728 28.0369 20.5242 27.5637 21.5813 27.5637C22.797 27.5637 23.8541 28.1421 24.4884 29.0886C25.1226 28.6153 25.9683 28.1947 27.0783 28.1947C27.554 28.1947 28.0825 28.2998 28.6111 28.4576C29.8267 28.8783 30.461 29.667 30.7781 30.4032C31.201 30.1928 31.6767 30.0877 32.2581 30.0877C32.8395 30.0877 33.4737 30.1928 34.0551 30.4558C36.0636 31.2971 36.3808 33.2427 36.1694 34.715H36.5922C38.9707 34.715 40.8735 36.608 40.8735 38.9742C40.8735 39.7104 40.662 40.394 40.3449 40.9724C40.9792 41.3405 42.6177 42.1292 44.0448 41.9715C45.2076 41.8137 45.6304 41.4457 45.789 41.2353C45.8947 41.0776 46.0004 40.9198 45.8947 40.7621L42.8291 37.3967C42.8291 37.3967 42.3006 36.9235 42.512 36.7657C42.6705 36.5554 42.9877 36.8709 43.1991 37.0287C44.7319 38.3432 46.6347 40.2888 46.6347 40.2888C46.6875 40.2888 46.7932 40.5517 47.4804 40.6569C48.0618 40.7621 49.1717 40.7095 49.9117 40.0785C50.1231 39.9207 50.2817 39.7104 50.4403 39.5527L50.3874 39.6052C51.1802 38.6062 50.2817 37.6071 50.2817 37.6071L46.8461 33.6108C46.8461 33.6108 46.3176 33.1375 46.529 32.9272C46.6875 32.7694 47.0047 33.0323 47.2161 33.1901C48.326 34.1366 49.9646 35.7141 51.4445 37.1864C51.7616 37.3967 53.083 38.2381 54.8801 37.0812C55.9372 36.3977 56.1486 35.5037 56.1486 34.8727C56.0958 34.0314 55.4086 33.4004 55.4086 33.4004L50.546 28.5628C50.546 28.5628 50.0174 28.1421 50.2288 27.8792C50.3874 27.6688 50.7045 27.9843 50.916 28.1421C52.4488 29.4567 56.6772 33.2427 56.6772 33.2427C56.73 33.2952 58.21 34.2943 59.9542 33.1901C60.5885 32.7694 61.0113 32.191 61.0642 31.4548C61.117 30.2454 60.2185 29.5093 60.2185 29.5093Z" fill="white"/>
<path d="M36.6518 35.6995C35.9118 35.6995 35.0661 36.1202 34.9604 36.0676C34.9076 36.015 35.0133 35.7521 35.0661 35.5418C35.119 35.384 36.1233 32.3868 33.6919 31.3877C31.842 30.599 30.732 31.4929 30.3092 31.9135C30.2035 32.0187 30.1506 32.0187 30.1506 31.861C30.0978 31.3351 29.8863 29.8628 28.3007 29.3895C26.0279 28.706 24.548 30.2835 24.178 30.8619C24.0194 29.5473 22.9095 28.5482 21.5881 28.5482C20.1081 28.5482 18.9453 29.705 18.9453 31.1774C18.9453 32.6497 20.1081 33.8065 21.5881 33.8065C22.2752 33.8065 22.9623 33.5436 23.438 33.0704V33.1755C23.3323 33.8065 23.1209 36.2254 25.6051 37.1719C26.6093 37.54 27.455 37.277 28.1421 36.7512C28.3535 36.5935 28.4064 36.646 28.3535 36.8564C28.2478 37.4874 28.3535 38.7494 30.2035 39.5381C31.5777 40.1165 32.4234 39.5381 32.9519 39.0123C33.1634 38.8019 33.2691 38.8545 33.2691 39.17C33.3219 40.9579 34.8019 42.325 36.5989 42.325C38.4489 42.325 39.9288 40.8527 39.9288 39.0123C39.9817 37.1719 38.5017 35.6995 36.6518 35.6995Z" fill="white"/>
<path d="M36.6514 42.0893C34.96 42.0893 33.6386 40.7747 33.5858 39.1446C33.5858 38.9868 33.5858 38.6188 33.2687 38.6188C33.163 38.6188 33.0044 38.6713 32.8987 38.8291C32.4758 39.1972 32.0001 39.5127 31.313 39.5127C30.9959 39.5127 30.6788 39.4601 30.3088 39.3023C28.5645 38.5662 28.5117 37.3568 28.6174 36.8835C28.6174 36.7783 28.6174 36.6206 28.5645 36.5154L28.4588 36.4103H28.3531C28.2474 36.4103 28.1417 36.4628 28.036 36.5154C27.5074 36.8835 27.0317 37.0413 26.556 37.0413C26.2918 37.0413 26.0275 36.9887 25.7104 36.8835C23.3847 35.9896 23.5962 33.7811 23.7019 33.1501C23.7019 32.9924 23.7019 32.9398 23.5962 32.8346L23.3847 32.7294L23.2262 32.8872C22.7505 33.3079 22.1691 33.5708 21.5348 33.5708C20.2134 33.5708 19.1035 32.5191 19.1035 31.1519C19.1035 29.7848 20.2134 28.7331 21.5348 28.7331C22.7505 28.7331 23.7547 29.627 23.9133 30.8364L24.019 31.4674L24.389 30.9416C24.4418 30.889 25.3932 29.4167 27.1903 29.4167C27.5074 29.4167 27.8774 29.4693 28.2474 29.5744C29.6745 29.9951 29.9388 31.3097 29.9388 31.8355C29.9916 32.151 30.2031 32.151 30.2559 32.151C30.3616 32.151 30.4673 32.0984 30.5202 31.9933C30.7845 31.7304 31.3659 31.2571 32.3173 31.2571C32.7401 31.2571 33.163 31.3623 33.6386 31.5726C35.9114 32.5191 34.8543 35.4112 34.8543 35.4638C34.6429 35.937 34.6429 36.1473 34.8543 36.2525L34.96 36.3051H35.0129C35.1186 36.3051 35.2243 36.2525 35.4357 36.1999C35.7529 36.0948 36.2285 35.937 36.6514 35.937C38.3428 35.937 39.7698 37.3568 39.7698 39.0394C39.717 40.7221 38.3428 42.0893 36.6514 42.0893ZM60.7005 28.2599C56.9478 24.9997 48.2795 17.4803 45.9539 15.745C44.6325 14.746 43.6811 14.2201 42.8883 13.9572C42.5183 13.852 41.9898 13.7469 41.3555 13.7469C40.7741 13.7469 40.1398 13.852 39.4527 14.0624C37.9199 14.5356 36.44 15.745 34.96 16.9019L34.9072 16.9545C33.5329 18.0061 32.1587 19.163 31.0487 19.3733C30.573 19.4785 30.0973 19.531 29.6217 19.531C28.406 19.531 27.3489 19.163 26.9789 18.6897C26.926 18.5845 26.9789 18.4794 27.0846 18.269V18.2165L30.3616 14.6934C32.9515 12.1168 35.3829 9.69796 40.9855 9.54021H41.2498C44.7382 9.54021 48.2267 11.1177 48.6495 11.2755C51.9265 12.853 55.3093 13.6943 58.7449 13.6943C62.2862 13.6943 65.9332 12.8004 69.7916 11.0651C69.3688 10.697 68.8931 10.3815 68.4702 10.0135C65.1403 11.4858 61.9162 12.222 58.7977 12.222C55.6264 12.222 52.4551 11.4332 49.3895 9.96088C49.2309 9.9083 45.3725 8.06788 41.3555 8.06788H41.0384C36.3343 8.17305 33.6386 9.85572 31.8944 11.328C30.1502 11.3806 28.6703 11.8013 27.296 12.1694C26.0804 12.4849 25.0761 12.8004 24.0719 12.8004C23.649 12.8004 22.909 12.7478 22.8562 12.7478C21.6934 12.6952 15.8793 11.2755 11.228 9.54021C10.7523 9.85571 10.2767 10.2238 9.85381 10.5919C14.6636 12.5375 20.5834 14.0624 22.4333 14.2201C22.9619 14.2727 23.4904 14.3253 24.0719 14.3253C25.2875 14.3253 26.5032 13.9572 27.7189 13.6417C28.406 13.4314 29.1988 13.221 29.9916 13.0633L29.3574 13.6943L26.0275 17.3225C25.7632 17.5855 25.1818 18.3216 25.5518 19.163C25.7104 19.531 26.0275 19.8465 26.4503 20.162C27.2432 20.6879 28.6703 21.056 29.9916 21.056C30.5202 21.056 30.9959 21.0034 31.4187 20.8982C32.8458 20.5827 34.2729 19.4259 35.8586 18.1639C37.1271 17.1648 38.8713 15.9554 40.2455 15.5873C40.6155 15.4821 41.0912 15.4295 41.4612 15.4295H41.7783C42.6769 15.5347 43.5226 15.8502 45.1082 17.007C47.8567 19.0578 60.0662 29.6796 60.172 29.7848C60.172 29.7848 60.9648 30.4684 60.9119 31.5726C60.8591 32.2036 60.5419 32.7294 59.9605 33.0975C59.432 33.413 58.9034 33.5708 58.3749 33.5708C57.582 33.5708 57.0006 33.2027 56.9478 33.1501C56.8949 33.0975 52.7194 29.3115 51.1866 28.0495C50.9223 27.8392 50.7109 27.6814 50.4466 27.6814C50.3409 27.6814 50.1823 27.734 50.1295 27.8392C49.8652 28.1547 50.1823 28.5228 50.4995 28.8383L55.3621 33.7285C55.3621 33.7285 55.9435 34.3069 56.0492 35.0431C56.1021 35.8318 55.6793 36.5154 54.8864 37.0413C54.305 37.4093 53.7236 37.6197 53.1422 37.6197C52.4022 37.6197 51.8737 37.3042 51.768 37.199L51.0809 36.5154C49.8123 35.2534 48.491 33.9914 47.5396 33.1501C47.1696 32.8872 46.9053 32.6769 46.641 32.6769C46.5353 32.6769 46.4296 32.7294 46.3239 32.782C46.2182 32.8872 46.1125 33.0975 46.4296 33.4656C46.5353 33.6234 46.6939 33.7285 46.6939 33.7285L50.2352 37.7248C50.288 37.7774 50.9751 38.6188 50.288 39.4075L50.1823 39.5653L49.8652 39.8808C49.2838 40.354 48.4381 40.4066 48.121 40.4066C47.9624 40.4066 47.8038 40.4066 47.6453 40.354C47.2753 40.3014 47.0639 40.1963 46.9582 40.0385L46.9053 39.9859C46.6939 39.7756 44.8968 37.9878 43.4169 36.7258C43.2054 36.568 42.994 36.3577 42.7297 36.3577C42.624 36.3577 42.5183 36.4103 42.4126 36.5154C42.0955 36.8309 42.5712 37.3042 42.7297 37.5145L45.7425 40.8273C45.7425 40.8798 45.6896 40.9324 45.6368 41.0376C45.5311 41.1953 45.1611 41.5634 44.0511 41.6686H43.6283C42.4655 41.6686 41.3026 41.1428 40.6684 40.7747C40.9327 40.1963 41.0912 39.5127 41.0912 38.8817C41.0912 36.4103 39.0827 34.3595 36.5457 34.3595H36.3871C36.4928 33.2027 36.3343 31.0994 34.1143 30.1529C33.4801 29.8899 32.8458 29.7322 32.2116 29.7322C31.7359 29.7322 31.2602 29.8374 30.8373 29.9951C30.3616 29.1012 29.6217 28.4702 28.6174 28.1021C28.1417 28.0495 27.6132 27.9444 27.0317 27.9444C26.1332 27.9444 25.2347 28.2073 24.4947 28.7331C23.7547 27.8392 22.6448 27.3134 21.5348 27.3134C20.5306 27.3134 19.5792 27.734 18.8392 28.4176C17.8878 27.6814 14.1351 25.3152 4.14545 23.0541C3.66975 22.9489 2.55979 22.6334 1.87267 22.4231C1.76696 22.9489 1.66125 23.5274 1.6084 24.0532C1.6084 24.0532 3.45833 24.4739 3.82832 24.579C14.0822 26.8401 17.465 29.2064 18.0464 29.627C17.8349 30.1003 17.7292 30.5735 17.7292 31.0994C17.7292 33.2027 19.4735 34.9379 21.5877 34.9379C21.7991 34.9379 22.0634 34.9379 22.2748 34.8853C22.5919 36.4103 23.5962 37.6197 25.1818 38.1981C25.6575 38.3558 26.0804 38.461 26.556 38.461C26.8732 38.461 27.1375 38.4084 27.4546 38.3558C27.7189 39.092 28.406 39.9859 29.8331 40.5643C30.3616 40.7747 30.8373 40.8798 31.3659 40.8798C31.7887 40.8798 32.1587 40.8273 32.5287 40.6695C33.2158 42.3522 34.8543 43.4564 36.7042 43.4564C37.9199 43.4564 39.0827 42.9832 39.9284 42.0893C40.6684 42.5099 42.2012 43.2461 43.734 43.2461C43.9454 43.2461 44.104 43.2461 44.3154 43.1935C45.8482 42.9832 46.5882 42.4048 46.9053 41.9315C46.9582 41.8263 47.011 41.7738 47.0639 41.6686C47.4339 41.7738 47.8038 41.8789 48.2795 41.8789C49.1252 41.8789 49.918 41.616 50.7637 40.985C51.5566 40.4066 52.138 39.5653 52.2437 38.8817V38.8291C52.5079 38.8817 52.7722 38.9343 53.0894 38.9343C53.9879 38.9343 54.8336 38.6713 55.6264 38.1455C57.2121 37.0938 57.4763 35.7793 57.4763 34.8853C57.7406 34.9379 58.0577 34.9905 58.322 34.9905C59.1148 34.9905 59.9605 34.7276 60.7005 34.2543C61.7048 33.6234 62.2862 32.6769 62.339 31.5726C62.3919 30.8364 62.2333 30.0477 61.8105 29.4167C64.4532 28.2599 70.4787 26.1039 77.6142 24.4739C77.5613 23.948 77.5085 23.3696 77.4027 22.8438C68.7345 24.7894 62.2862 27.5237 60.7005 28.2599Z" fill="#28316B"/>
<path d="M210.309 19.5435C209.622 20.4374 208.618 20.9107 207.349 20.9107C206.081 20.9107 205.077 20.4374 204.39 19.5435C203.702 18.6496 203.332 17.335 203.332 15.6524C203.332 13.9697 203.702 12.6551 204.39 11.7612C205.077 10.8673 206.081 10.394 207.349 10.394C208.671 10.394 209.622 10.8673 210.309 11.7612C210.996 12.6551 211.366 13.9697 211.366 15.6524C211.366 17.335 210.996 18.6496 210.309 19.5435ZM213.851 9.34237C212.423 7.55454 210.256 6.66063 207.349 6.66063C204.442 6.66063 202.275 7.55454 200.848 9.34237C199.421 11.1302 198.681 13.2335 198.681 15.6524C198.681 18.1238 199.368 20.2271 200.848 21.9624C202.275 23.6976 204.442 24.5915 207.349 24.5915C210.256 24.5915 212.423 23.6976 213.851 21.9624C215.278 20.2271 215.965 18.1238 215.965 15.6524C216.018 13.2335 215.278 11.1302 213.851 9.34237Z" fill="white"/>
<path d="M175.127 17.4936C175.074 18.966 174.651 19.965 173.858 20.5435C173.065 21.1219 172.167 21.3848 171.163 21.3848C170.528 21.3848 170.053 21.227 169.63 20.859C169.207 20.5435 168.996 19.965 168.996 19.2289C168.996 18.3875 169.365 17.7565 170.053 17.3359C170.475 17.1255 171.163 16.9152 172.114 16.7575L173.118 16.5471C173.594 16.442 174.017 16.3368 174.281 16.2316C174.598 16.1265 174.862 15.9687 175.127 15.811V17.4936ZM177.399 7.87089C175.972 7.13473 174.281 6.76664 172.431 6.76664C169.577 6.76664 167.516 7.50281 166.353 8.97514C165.613 9.92164 165.19 11.1311 165.084 12.6034H169.365C169.471 11.9724 169.683 11.4466 170 11.0785C170.423 10.5526 171.215 10.2897 172.273 10.2897C173.224 10.2897 173.964 10.3949 174.44 10.7104C174.915 10.9733 175.18 11.4466 175.18 12.1301C175.18 12.7086 174.862 13.1292 174.228 13.3921C173.858 13.5499 173.277 13.6551 172.431 13.7602L170.898 13.918C169.154 14.1283 167.886 14.4964 166.987 15.0222C165.348 15.9687 164.556 17.441 164.556 19.5444C164.556 21.1219 165.031 22.3839 166.088 23.2778C167.093 24.1717 168.361 24.5398 169.894 24.5924C179.567 25.013 179.461 19.4918 179.567 18.3875V12.025C179.567 9.97422 178.827 8.60706 177.399 7.87089Z" fill="white"/>
<path d="M155.292 10.5359C156.402 10.5359 157.194 10.8514 157.723 11.535C158.093 12.0608 158.304 12.5866 158.41 13.2176H163.167C162.903 10.7988 162.057 9.16873 160.63 8.22223C159.203 7.27573 157.353 6.80248 155.133 6.80248C152.49 6.80248 150.429 7.59123 148.949 9.22131C147.469 10.8514 146.729 13.0599 146.729 15.952C146.729 18.5285 147.416 20.5793 148.738 22.2094C150.112 23.8395 152.226 24.6282 155.08 24.6282C157.934 24.6282 160.101 23.6817 161.581 21.7361C162.48 20.5267 163.008 19.2647 163.114 17.9501H158.357C158.251 18.844 157.987 19.5802 157.511 20.106C157.036 20.6319 156.296 20.9474 155.186 20.9474C153.653 20.9474 152.596 20.2638 152.015 18.844C151.697 18.1079 151.539 17.1088 151.539 15.8994C151.539 14.5848 151.697 13.5857 152.015 12.797C152.649 11.2721 153.706 10.5359 155.292 10.5359Z" fill="white"/>
<path d="M145.466 6.82872C135.635 6.82872 136.216 15.4524 136.216 15.4524V24.2338H140.656V15.9782C140.656 14.611 140.814 13.612 141.184 12.981C141.819 11.8241 142.981 11.2457 144.779 11.2457H145.307C145.518 11.2457 145.783 11.2983 146.047 11.2983V6.77614C145.836 6.77614 145.73 6.77614 145.677 6.72355C145.624 6.82872 145.518 6.82872 145.466 6.82872Z" fill="white"/>
<path d="M123.125 11.3725C123.76 10.7415 124.605 10.426 125.768 10.426C126.825 10.426 127.671 10.7415 128.411 11.3199C129.098 11.9509 129.521 12.7922 129.574 14.0016H121.963C122.068 12.8974 122.491 12.0561 123.125 11.3725ZM129.098 19.628C128.887 19.891 128.728 20.1013 128.517 20.3116C127.882 20.8375 127.037 20.9952 126.032 20.9952C125.081 20.9952 124.341 20.8375 123.654 20.4168C122.544 19.7332 121.91 18.5764 121.857 16.8937H134.172C134.172 15.4214 134.119 14.3171 134.014 13.5284C133.802 12.2138 133.379 11.057 132.692 10.0579C131.899 8.90106 130.948 8.11231 129.785 7.58648C128.622 7.06065 127.301 6.79773 125.821 6.79773C123.337 6.79773 121.328 7.58648 119.743 9.1114C118.21 10.6889 117.417 12.8974 117.417 15.8421C117.417 18.9445 118.263 21.2055 120.007 22.5727C121.751 23.9399 123.707 24.6235 125.98 24.6235C128.728 24.6235 130.842 23.7821 132.322 22.152C133.168 21.3107 133.644 20.4168 133.855 19.5755H129.098V19.628Z" fill="white"/>
<path d="M115.611 24.2088H111.542V14.0076C111.542 13.0611 111.224 10.8526 108.529 10.8526C106.732 10.8526 105.463 12.1146 105.463 14.0076V24.2088H101.393V14.0076C101.393 13.0611 101.129 10.8526 98.4334 10.8526C96.6364 10.8526 95.3678 12.1146 95.3678 14.0076V24.2088H91.2451V14.1128C91.2451 9.90614 94.0464 6.75114 98.3806 6.75114C100.548 6.75114 102.292 7.64506 103.455 9.11739C104.67 7.69764 106.467 6.75114 108.529 6.75114C112.969 6.75114 115.611 9.80097 115.611 14.1128V24.2088Z" fill="white"/>
<path d="M192.07 19.6023C191.436 20.5488 190.484 20.9695 189.216 20.9695C187.947 20.9695 187.049 20.4963 186.415 19.5498C185.78 18.6033 185.516 17.2361 185.516 15.7112C185.516 14.2914 185.833 13.082 186.415 12.0829C186.996 11.1364 187.947 10.6106 189.269 10.6106C190.114 10.6106 190.854 10.8735 191.489 11.3994C192.546 12.2933 193.074 13.8708 193.074 15.9215C193.021 17.4464 192.704 18.6558 192.07 19.6023ZM197.408 1.46111C197.408 1.46111 192.916 0.987862 192.916 4.56352V9.29602C192.44 8.50727 191.753 7.87627 190.96 7.4556C190.167 6.98235 189.269 6.77202 188.212 6.77202C185.992 6.77202 184.195 7.61335 182.873 9.24344C181.552 10.8735 180.865 13.2923 180.865 16.1318C180.865 18.6033 181.552 20.654 182.873 22.2315C184.247 23.809 186.89 24.4926 189.216 24.4926C197.408 24.4926 197.303 17.499 197.303 17.499L197.408 1.46111Z" fill="white"/>
<path d="M103.164 40.3618C103.164 38.6791 102.846 37.4171 102.159 36.5232C101.525 35.6293 100.574 35.156 99.358 35.156C98.1951 35.156 97.2438 35.6293 96.6095 36.5232C95.9752 37.3645 95.711 38.6265 95.711 40.3618C95.711 41.9919 96.0281 43.2013 96.7152 44.0426C97.3495 44.9365 98.3009 45.4098 99.5165 45.4098C100.626 45.4098 101.525 44.9365 102.212 44.0426C102.846 43.0961 103.164 41.8867 103.164 40.3618ZM95.711 52.3508C95.711 52.9818 95.4467 53.5076 94.971 53.9283C94.5481 54.2964 93.9667 54.5067 93.3853 54.5067H91.2183V39.0998C91.2183 36.1025 92.2225 34.2095 93.9139 32.9475C95.1295 32.0536 96.9795 31.1597 100.626 31.3175C102.529 31.4226 104.326 32.2114 105.542 33.6837C107.022 35.4715 107.656 37.4697 107.656 40.0989C107.656 42.7806 107.022 44.9891 105.701 46.6718C104.379 48.3019 102.688 49.0906 100.679 49.0906C99.5694 49.0906 98.618 48.8803 97.8252 48.5122C96.9266 48.0915 96.2395 47.4079 95.711 46.514V52.3508Z" fill="#50B4E9"/>
<path d="M129.866 40.3624C129.866 43.3071 130.711 44.9372 132.456 45.2527C134.147 45.5682 135.415 45.2001 136.261 44.0433C136.631 43.57 136.948 42.8338 137.107 41.8348C137.265 40.8357 137.265 39.8366 137.16 38.8375C137.001 37.8384 136.631 36.9971 136.103 36.2083C135.521 35.4196 134.728 35.0515 133.671 35.0515C132.191 35.0515 131.24 35.5774 130.711 36.6816C130.13 37.7858 129.866 38.9953 129.866 40.3624ZM137.16 47.7241V46.6198C136.367 47.8293 135.363 48.5654 134.041 48.8809C132.72 49.1964 131.451 49.0913 130.13 48.5654C128.861 48.0396 127.751 47.0931 126.8 45.7259C125.901 44.3062 125.426 42.5183 125.426 40.2573C125.426 37.6281 126.06 35.4722 127.276 33.7895C128.491 32.1594 130.447 31.3707 133.143 31.3181C135.785 31.2655 137.371 31.8439 138.851 33.0008C140.49 34.2628 141.494 36.1558 141.494 39.153V48.1973C141.494 51.0894 139.485 56.4003 133.143 55.9797C129.231 55.7167 127.011 54.0867 125.796 50.4584H130.5C130.87 51.0368 131.346 51.5101 132.086 51.8256C132.773 52.1411 133.513 52.2462 134.2 52.0885C134.887 51.9307 135.574 51.5101 136.155 50.8265C136.79 50.1429 137.107 49.0912 137.16 47.7241Z" fill="#50B4E9"/>
<path d="M119.408 42.15C119.355 43.6223 118.932 44.6214 118.139 45.1998C117.347 45.7782 116.448 46.0411 115.444 46.0411C114.81 46.0411 114.334 45.8834 113.858 45.5153C113.435 45.1998 113.224 44.6214 113.224 43.8852C113.224 43.0439 113.594 42.4129 114.281 41.9922C114.704 41.7819 115.391 41.5716 116.342 41.4138L117.347 41.2035C117.875 41.0983 118.245 40.9932 118.509 40.888C118.827 40.7828 119.091 40.6251 119.355 40.4673V42.15H119.408ZM121.681 32.5273C120.254 31.7911 118.562 31.423 116.712 31.423C113.858 31.423 111.85 32.1592 110.634 33.6315C109.894 34.578 109.471 35.7874 109.365 37.2597H113.647C113.752 36.6287 113.964 36.1029 114.281 35.7348C114.704 35.209 115.497 34.9461 116.554 34.9461C117.505 34.9461 118.245 35.0512 118.721 35.3667C119.197 35.6297 119.461 36.1029 119.461 36.7865C119.461 37.3649 119.144 37.7856 118.509 38.0485C118.139 38.2062 117.558 38.3114 116.712 38.4166L115.18 38.5743C113.435 38.7847 112.167 39.1527 111.268 39.6786C109.63 40.6251 108.837 42.0974 108.837 44.2007C108.837 45.7782 109.365 47.0402 110.37 47.8816C111.374 48.7755 112.642 49.1436 114.175 49.1961C123.848 49.6168 123.742 44.0956 123.848 42.9913V36.6287C123.848 34.6306 123.108 33.2634 121.681 32.5273Z" fill="#50B4E9"/>
<path d="M154.843 44.1304C154.156 45.0243 153.152 45.4975 151.884 45.4975C150.615 45.4975 149.611 45.0243 148.924 44.1304C148.237 43.2364 147.867 41.9219 147.867 40.2392C147.867 38.5565 148.237 37.2419 148.924 36.348C149.611 35.4541 150.615 34.9809 151.884 34.9809C153.205 34.9809 154.156 35.4541 154.843 36.348C155.531 37.2419 155.901 38.5565 155.901 40.2392C155.901 41.9219 155.531 43.2364 154.843 44.1304ZM158.385 33.9292C156.958 32.1414 154.791 31.2474 151.884 31.2474C148.977 31.2474 146.809 32.1414 145.382 33.9292C143.955 35.717 143.215 37.8204 143.215 40.2392C143.215 42.7106 143.902 44.8139 145.382 46.5492C146.809 48.2844 148.977 49.1783 151.884 49.1783C154.791 49.1783 156.958 48.2844 158.385 46.5492C159.812 44.8139 160.499 42.7106 160.499 40.2392C160.552 37.8204 159.812 35.717 158.385 33.9292Z" fill="#50B4E9"/>
</g>
<defs>
<clipPath id="clip0_450_3504">
<rect width="216" height="56" fill="white"/>
</clipPath>
</defs>
</svg>
